<svg width="200" height="49" viewBox="0 0 200 49" fill="none" xmlns="http://www.w3.org/2000/svg">
<path d="M5.49741 48.22C4.88941 48.22 4.35741 48.1693 3.90141 48.068C3.44541 47.992 3.04008 47.878 2.68541 47.726V44.838C3.09075 44.9393 3.52141 45.028 3.97741 45.104C4.43341 45.18 4.91475 45.218 5.42141 45.218C6.05475 45.218 6.65008 45.0913 7.20741 44.838C7.79008 44.5847 8.25875 44.1413 8.61341 43.508C8.96808 42.8747 9.14541 41.988 9.14541 40.848V13.868H12.5654V40.582C12.5654 42.33 12.2741 43.7613 11.6914 44.876C11.1087 46.016 10.2854 46.852 9.22141 47.384C8.15741 47.9413 6.91608 48.22 5.49741 48.22ZM36.75 41L33.482 32.602H22.728L19.498 41H16.04L26.642 13.754H29.72L40.284 41H36.75ZM29.416 21.354C29.34 21.1513 29.2134 20.784 29.036 20.252C28.8587 19.72 28.6814 19.1753 28.504 18.618C28.352 18.0353 28.2254 17.592 28.124 17.288C27.9974 17.7947 27.858 18.314 27.706 18.846C27.5794 19.3527 27.44 19.8213 27.288 20.252C27.1614 20.6827 27.0474 21.05 26.946 21.354L23.868 29.562H32.456L29.416 21.354ZM51.1776 13.868C54.7242 13.868 57.3082 14.5647 58.9296 15.958C60.5509 17.3513 61.3616 19.3147 61.3616 21.848C61.3616 22.9627 61.1716 24.0393 60.7916 25.078C60.4369 26.0913 59.8416 27.0033 59.0056 27.814C58.1696 28.6247 57.0549 29.2707 55.6616 29.752C54.2682 30.208 52.5582 30.436 50.5316 30.436H47.4156V41H43.9956V13.868H51.1776ZM50.8736 16.794H47.4156V27.51H50.1516C51.8742 27.51 53.3056 27.3327 54.4456 26.978C55.5856 26.598 56.4342 26.0027 56.9916 25.192C57.5489 24.3813 57.8276 23.3173 57.8276 22C57.8276 20.252 57.2702 18.9473 56.1556 18.086C55.0409 17.2247 53.2802 16.794 50.8736 16.794ZM82.1348 41L78.8668 32.602H68.1128L64.8828 41H61.4248L72.0268 13.754H75.1048L85.6688 41H82.1348ZM74.8008 21.354C74.7248 21.1513 74.5981 20.784 74.4208 20.252C74.2435 19.72 74.0661 19.1753 73.8888 18.618C73.7368 18.0353 73.6101 17.592 73.5088 17.288C73.3821 17.7947 73.2428 18.314 73.0908 18.846C72.9641 19.3527 72.8248 19.8213 72.6728 20.252C72.5461 20.6827 72.4321 21.05 72.3308 21.354L69.2528 29.562H77.8408L74.8008 21.354ZM110.888 41H106.898L92.3823 18.466H92.2303C92.2557 18.922 92.281 19.4287 92.3063 19.986C92.357 20.5433 92.395 21.1513 92.4203 21.81C92.4457 22.4433 92.471 23.102 92.4963 23.786C92.5217 24.47 92.5343 25.154 92.5343 25.838V41H89.3803V13.868H93.3323L107.81 36.326H107.962C107.937 36.022 107.912 35.604 107.886 35.072C107.861 34.5147 107.836 33.9067 107.81 33.248C107.785 32.564 107.76 31.8673 107.734 31.158C107.709 30.4487 107.696 29.79 107.696 29.182V13.868H110.888V41Z" fill="#939598"/>
<path d="M153.925 24.356V26.864H130.555V11.322H153.507V13.83H133.633V17.782H152.709V20.176H133.633V24.356H153.925ZM157.345 30.36V32.906H143.437V43.812H140.321V32.906H126.413V30.36H157.345ZM170.528 33.362C173.758 33.362 176.038 29.79 176.038 24.242C176.038 18.732 173.758 15.16 170.528 15.16C167.26 15.16 164.98 18.732 164.98 24.242C164.98 29.79 167.26 33.362 170.528 33.362ZM186.374 9.726H189.49V43.888H186.374V25.268H178.964C178.66 31.956 175.278 36.136 170.528 36.136C165.55 36.136 162.016 31.5 162.016 24.242C162.016 16.984 165.55 12.348 170.528 12.348C175.126 12.348 178.47 16.338 178.964 22.722H186.374V9.726Z" fill="#D9D9D9"/>
</svg>
