<svg width="201" height="49" viewBox="0 0 201 49" fill="none" xmlns="http://www.w3.org/2000/svg">
<path d="M6.29452 48.2649C5.68652 48.2649 5.15452 48.2143 4.69852 48.1129C4.24252 48.0369 3.83718 47.9229 3.48252 47.7709V44.8829C3.88785 44.9843 4.31852 45.0729 4.77452 45.1489C5.23052 45.2249 5.71185 45.2629 6.21852 45.2629C6.85185 45.2629 7.44718 45.1363 8.00452 44.8829C8.58718 44.6296 9.05585 44.1863 9.41052 43.5529C9.76518 42.9196 9.94252 42.0329 9.94252 40.8929V13.9129H13.3625V40.6269C13.3625 42.3749 13.0712 43.8063 12.4885 44.9209C11.9059 46.0609 11.0825 46.8969 10.0185 47.4289C8.95452 47.9863 7.71318 48.2649 6.29452 48.2649ZM37.5471 41.0449L34.2791 32.6469H23.5251L20.2951 41.0449H16.8371L27.4391 13.7989H30.5171L41.0811 41.0449H37.5471ZM30.2131 21.3989C30.1371 21.1963 30.0105 20.8289 29.8331 20.2969C29.6558 19.7649 29.4785 19.2203 29.3011 18.6629C29.1491 18.0803 29.0225 17.6369 28.9211 17.3329C28.7945 17.8396 28.6551 18.3589 28.5031 18.8909C28.3765 19.3976 28.2371 19.8663 28.0851 20.2969C27.9585 20.7276 27.8445 21.0949 27.7431 21.3989L24.6651 29.6069H33.2531L30.2131 21.3989ZM51.9747 13.9129C55.5213 13.9129 58.1053 14.6096 59.7267 16.0029C61.348 17.3963 62.1587 19.3596 62.1587 21.8929C62.1587 23.0076 61.9687 24.0843 61.5887 25.1229C61.234 26.1363 60.6387 27.0483 59.8027 27.8589C58.9667 28.6696 57.852 29.3156 56.4587 29.7969C55.0653 30.2529 53.3553 30.4809 51.3287 30.4809H48.2127V41.0449H44.7927V13.9129H51.9747ZM51.6707 16.8389H48.2127V27.5549H50.9487C52.6713 27.5549 54.1027 27.3776 55.2427 27.0229C56.3827 26.6429 57.2313 26.0476 57.7887 25.2369C58.346 24.4263 58.6247 23.3623 58.6247 22.0449C58.6247 20.2969 58.0673 18.9923 56.9527 18.1309C55.838 17.2696 54.0773 16.8389 51.6707 16.8389ZM82.9319 41.0449L79.6639 32.6469H68.9099L65.6799 41.0449H62.2219L72.8239 13.7989H75.9019L86.4659 41.0449H82.9319ZM75.5979 21.3989C75.5219 21.1963 75.3952 20.8289 75.2179 20.2969C75.0406 19.7649 74.8632 19.2203 74.6859 18.6629C74.5339 18.0803 74.4072 17.6369 74.3059 17.3329C74.1792 17.8396 74.0399 18.3589 73.8879 18.8909C73.7612 19.3976 73.6219 19.8663 73.4699 20.2969C73.3432 20.7276 73.2292 21.0949 73.1279 21.3989L70.0499 29.6069H78.6379L75.5979 21.3989ZM111.685 41.0449H107.695L93.1794 18.5109H93.0274C93.0528 18.9669 93.0781 19.4736 93.1034 20.0309C93.1541 20.5883 93.1921 21.1963 93.2174 21.8549C93.2428 22.4883 93.2681 23.1469 93.2934 23.8309C93.3188 24.5149 93.3314 25.1989 93.3314 25.8829V41.0449H90.1774V13.9129H94.1294L108.607 36.3709H108.759C108.734 36.0669 108.709 35.6489 108.683 35.1169C108.658 34.5596 108.633 33.9516 108.607 33.2929C108.582 32.6089 108.557 31.9123 108.531 31.2029C108.506 30.4936 108.493 29.8349 108.493 29.2269V13.9129H111.685V41.0449Z" fill="#FF0000"/>
<path d="M154.722 24.4009V26.9089H131.352V11.3669H154.304V13.8749H134.43V17.8269H153.506V20.2209H134.43V24.4009H154.722ZM158.142 30.4049V32.9509H144.234V43.8569H141.118V32.9509H127.21V30.4049H158.142ZM171.325 33.4069C174.555 33.4069 176.835 29.8349 176.835 24.2869C176.835 18.7769 174.555 15.2049 171.325 15.2049C168.057 15.2049 165.777 18.7769 165.777 24.2869C165.777 29.8349 168.057 33.4069 171.325 33.4069ZM187.171 9.77092H190.287V43.9329H187.171V25.3129H179.761C179.457 32.0009 176.075 36.1809 171.325 36.1809C166.347 36.1809 162.813 31.5449 162.813 24.2869C162.813 17.0289 166.347 12.3929 171.325 12.3929C175.923 12.3929 179.267 16.3829 179.761 22.7669H187.171V9.77092Z" fill="black"/>
</svg>
