<?xml version="1.0" encoding="utf-8"?>
<!-- Generator: Adobe Illustrator 23.0.4, SVG Export Plug-In . SVG Version: 6.00 Build 0)  -->
<svg version="1.1" id="Layer_1" xmlns="http://www.w3.org/2000/svg" xmlns:xlink="http://www.w3.org/1999/xlink" x="0px" y="0px"
	 viewBox="0 0 19.8 19.8" style="enable-background:new 0 0 19.8 19.8;" xml:space="preserve">
<style type="text/css">
	.st0{enable-background:new    ;}
</style>
<title>Asset 40</title>
<g>
	<path class="st0" d="M15.3,12.6H4.5c-2.5,0-4.5,2-4.5,4.5v2.7h0.9v-2.7c0-2,1.6-3.6,3.6-3.6h10.8c2,0,3.6,1.6,3.6,3.6v2.7h0.9v-2.7
		C19.8,14.6,17.8,12.6,15.3,12.6z"/>
	<path class="st0" d="M9.9,11c3,0,5.4-2.4,5.4-5.4s-2.4-5.4-5.4-5.4S4.5,2.6,4.5,5.6S6.9,11,9.9,11z M9.9,1.1c2.5,0,4.5,2,4.5,4.5
		s-2,4.5-4.5,4.5s-4.5-2-4.5-4.5S7.4,1.1,9.9,1.1z"/>
</g>
</svg>
