<svg id="Layer_1" data-name="Layer 1" xmlns="http://www.w3.org/2000/svg" viewBox="0 0 283.46 58.92"><title>Pandora_Logo_Black_RGB_Web</title><polygon points="177.86 10.23 179.04 10.23 179.1 10.17 178.1 0.06 178.04 0 177.74 0 177.68 0.06 176.63 10.17 176.69 10.23 177.86 10.23"/><polygon points="183.56 10.88 183.62 10.82 185.33 1.76 185.27 1.71 184.97 1.65 184.92 1.71 181.15 10.29 181.21 10.35 183.56 10.88"/><path d="M309.36,168.29a1.38,1.38,0,1,0-1.41-1.41A1.38,1.38,0,0,0,309.36,168.29Z" transform="translate(-127.56 -153.53)"/><path d="M305.42,167.88a1.38,1.38,0,1,0-1.41-1.41A1.38,1.38,0,0,0,305.42,167.88Z" transform="translate(-127.56 -153.53)"/><polygon points="172.16 10.88 174.51 10.35 174.57 10.29 170.81 1.71 170.75 1.65 170.45 1.71 170.39 1.76 172.1 10.82 172.16 10.88"/><path d="M300.07,166.88a1.38,1.38,0,1,0,2.76,0,1.38,1.38,0,0,0-2.76,0Z" transform="translate(-127.56 -153.53)"/><path d="M139.61,170.82h-12l-.06.06s.29,2.88.29,7.88V204c0,5-.29,7.88-.29,7.88l.06.06h7.88l.06-.06s-.29-2.88-.29-7.88v-7.41l.06-.06c1.06.12,3.47.24,4.29.24,8.11,0,15.05-4.94,15.05-13.29C154.66,175.41,147.67,170.82,139.61,170.82ZM139.26,190a30.48,30.48,0,0,1-4-.29V177.58h4.59c4.06,0,7.29,1.65,7.29,5.94S144.32,190,139.26,190Z" transform="translate(-127.56 -153.53)"/><path d="M177.17,174.17a22.73,22.73,0,0,1-1.18-3.29l-.06-.06h-6.41l-.06.06a17.85,17.85,0,0,1-1.12,3.29l-13.88,33.4a21,21,0,0,1-2.35,4.35V212h8.11l.06-.06a14.27,14.27,0,0,1,1.18-3.7l2.53-6.29h17.87l2.7,6.29c.88,2.41,1.41,3.7,1.41,3.7l.06.06h8.11v-.06a31.2,31.2,0,0,1-2.35-4.35Zm-10.41,21,5.82-14.52h.06l6.29,14.52Z" transform="translate(-127.56 -153.53)"/><path d="M234.78,170.88l-.06-.06h-7.17l-.06.06s.29,2.88.29,7.88v20.7h-.06L205.5,170.82h-7.88l-.06.06a11.28,11.28,0,0,1,1.35,4.06V204c0,5-.29,7.88-.29,7.88l.06.06h7.17l.06-.06s-.29-2.88-.29-7.88V182.93h.06L228,212h6.7l.06-.06s-.29-2.88-.29-7.88V178.76C234.48,173.76,234.78,170.88,234.78,170.88Z" transform="translate(-127.56 -153.53)"/><path d="M257.12,170.82H243.36l-.06.06s.29,2.88.29,7.88V204c0,5-.29,7.88-.29,7.88l.06.06h4.23c2.78,0,5.88.35,9.41.35,12.64,0,21.58-8.94,21.58-20.87S269.82,170.82,257.12,170.82Zm-.47,34.75a21.74,21.74,0,0,1-4.88-.35c-.65-.18-.76-.41-.76-1.53V177.52h5.47c8.88,0,14.58,6,14.58,14S265.35,205.57,256.65,205.57Z" transform="translate(-127.56 -153.53)"/><path d="M305.42,170.23a21.11,21.11,0,1,0,21.11,21.11A20.8,20.8,0,0,0,305.42,170.23Zm0,35.46c-7.64,0-13.58-6.23-13.58-14.35S297.78,177,305.42,177s13.64,6.23,13.64,14.35S313.12,205.69,305.42,205.69Z" transform="translate(-127.56 -153.53)"/><path d="M355.87,198a7.38,7.38,0,0,0-4.06-3.35v-.06c4.29-.94,8.29-5.94,8.29-10.94,0-6.82-5.23-12.82-13.29-12.82H333.65l-.06.06s.29,2.88.29,7.88V204c0,5-.29,7.88-.29,7.88l.06.06h7.88l.06-.06s-.29-2.88-.29-7.88v-7.88c3.94,0,5.47.76,6.88,3l3.35,5.41a55.6,55.6,0,0,1,3.94,7.35l.06.06h9.41v-.06a70.43,70.43,0,0,1-5.06-7.35ZM345,189.63a20.56,20.56,0,0,1-3.7-.24V177.52h4.53c4.41,0,6.76,2.88,6.76,6.17C352.58,186.81,350.17,189.63,345,189.63Z" transform="translate(-127.56 -153.53)"/><path d="M408.67,207.57,394,174.17a22.71,22.71,0,0,1-1.18-3.29l-.06-.06h-6.41l-.06.06a17.85,17.85,0,0,1-1.12,3.29l-13.88,33.4a21,21,0,0,1-2.35,4.35V212h8.11l.06-.06a14.27,14.27,0,0,1,1.18-3.7l2.53-6.29h17.87l2.7,6.29c.88,2.41,1.41,3.7,1.41,3.7l.06.06H411v-.06A31.18,31.18,0,0,1,408.67,207.57Zm-25-12.41,5.82-14.52h.06l6.29,14.52Z" transform="translate(-127.56 -153.53)"/></svg>