<?xml version="1.0" encoding="utf-8"?>
<!-- Generator: Adobe Illustrator 23.0.4, SVG Export Plug-In . SVG Version: 6.00 Build 0)  -->
<svg version="1.1" id="Layer_1" xmlns="http://www.w3.org/2000/svg" xmlns:xlink="http://www.w3.org/1999/xlink" x="0px" y="0px"
	 viewBox="0 0 19.7765961 19.8514099" style="enable-background:new 0 0 19.7765961 19.8514099;" xml:space="preserve">
<path d="M5.805603,0h8.1653976c3.5582047,0,5.8055954,2.2848206,5.8055954,5.8430176v8.1654053
	c0,3.5582886-2.2473907,5.8429871-5.8055954,5.8429871H5.805603C2.247406,19.8514099,0,17.5667114,0,14.0084229V5.8430176
	C0,2.2848206,2.247406,0,5.805603,0z M5.8805008,18.0536194h8.0156021c2.5094986,0,4.0826035-1.4981995,4.0826035-4.1201172
	V5.9179993c0-2.6218872-1.5731049-4.1201782-4.0826035-4.1201782H5.8805008c-2.5094986,0-4.0825958,1.498291-4.0825958,4.1201782
	v8.0155029C1.797905,16.5554199,3.3710022,18.0536194,5.8805008,18.0536194z M15.132103,3.4459229
	c-0.5992966,0-1.1611023,0.5617981-1.1611023,1.2359924c0,0.5993042,0.5618057,1.1611023,1.1611023,1.1611023
	c0.674202,0,1.2360001-0.5617981,1.2360001-1.1611023C16.368103,4.0077209,15.8063049,3.4459229,15.132103,3.4459229z
	 M9.8883057,13.2218018c-1.797905,0-3.2961044-1.4607849-3.2961044-3.2960815c0-1.7979126,1.4981995-3.2961121,3.2961044-3.2961121
	c1.7978973,0,3.2960968,1.4981995,3.2960968,3.2961121C13.1844025,11.7610168,11.686203,13.2218018,9.8883057,13.2218018z
	 M9.8883057,4.8692017c-2.8092041,0-5.0565033,2.2848206-5.0565033,5.0565186c0,2.8092041,2.2472992,5.0939941,5.0565033,5.0939941
	c2.771698,0,5.0564957-2.28479,5.0564957-5.0939941C14.9448013,7.1540222,12.6600037,4.8692017,9.8883057,4.8692017z"/>
</svg>
