<?xml version="1.0" encoding="utf-8"?>
<!-- Generator: Adobe Illustrator 23.0.4, SVG Export Plug-In . SVG Version: 6.00 Build 0)  -->
<svg version="1.1" id="Layer_1" xmlns="http://www.w3.org/2000/svg" xmlns:xlink="http://www.w3.org/1999/xlink" x="0px" y="0px"
	 viewBox="0 0 19.7765961 13.9335022" style="enable-background:new 0 0 19.7765961 13.9335022;" xml:space="preserve">
<path d="M7.8656921,9.8883057V3.9328918l5.1688995,3.033905L7.8656921,9.8883057z M19.3270874,2.1350098
	c-0.2247009-0.8988953-0.8988953-1.5731201-1.7978973-1.7979126C16.0684967,0,9.9257965,0,9.9257965,0
	s-6.2176971,0-7.790802,0.3370972C1.2360992,0.5618896,0.5617981,1.2361145,0.3370972,2.1350098
	C0,3.7081909,0,6.9667969,0,6.9667969s0,3.1463013,0.3370972,4.7194214
	c0.2247009,0.8988953,0.8990021,1.5730896,1.7978973,1.7978821c1.5731049,0.4494019,7.790802,0.4494019,7.790802,0.4494019
	s6.1427002,0,7.6033936-0.4494019c0.8990021-0.2247925,1.5731964-0.8989868,1.7978973-1.7978821
	c0.4495087-1.5731201,0.4495087-4.7194214,0.4495087-4.7194214S19.7765961,3.7081909,19.3270874,2.1350098z"/>
</svg>
