<svg width="100" height="100" viewBox="0 0 100 100" fill="none" xmlns="http://www.w3.org/2000/svg">
<path d="M50 3.65588e-06C77.621 1.24118e-06 100 22.379 100 50C100 77.621 77.621 100 50 100C22.379 100 -2.67169e-06 77.621 -5.08639e-06 50C-7.5011e-06 22.379 22.379 6.07058e-06 50 3.65588e-06ZM26.6129 58.871L50 58.871L50 73.1653C50 75.3226 52.621 76.4113 54.1331 74.879L77.1774 51.7137C78.125 50.7661 78.125 49.254 77.1774 48.3065L54.1331 25.1411C52.6008 23.6089 50 24.6976 50 26.8548L50 41.129L26.6129 41.129C25.2823 41.129 24.1935 42.2177 24.1935 43.5484L24.1935 56.4516C24.1935 57.7823 25.2823 58.871 26.6129 58.871Z" fill="black"/>
</svg>
