<svg width="100" height="100" viewBox="0 0 100 100" fill="none" xmlns="http://www.w3.org/2000/svg">
<path d="M50 100C22.379 100 0 77.621 0 50C0 22.379 22.379 0 50 0C77.621 0 100 22.379 100 50C100 77.621 77.621 100 50 100ZM73.3871 41.129H50V26.8347C50 24.6774 47.379 23.5887 45.8669 25.121L22.8226 48.2863C21.875 49.2339 21.875 50.746 22.8226 51.6935L45.8669 74.8589C47.3992 76.3911 50 75.3024 50 73.1452V58.871H73.3871C74.7177 58.871 75.8065 57.7823 75.8065 56.4516V43.5484C75.8065 42.2177 74.7177 41.129 73.3871 41.129Z" fill="black"/>
</svg>
