<svg width="100" height="100" viewBox="0 0 100 100" fill="none" xmlns="http://www.w3.org/2000/svg">
<path d="M36.5432 46.6248H42.3028L39.423 37.7573L36.5432 46.6248Z" fill="black"/>
<path d="M50 0C22.3846 0 0 19.1261 0 42.7225C0 57.9775 9.36058 71.3778 23.4375 78.922C22.6731 81.7823 18.5144 97.3343 18.351 98.5587C18.351 98.5587 18.25 99.4756 18.7981 99.8247C18.9815 99.925 19.1818 99.9836 19.3868 99.997C19.5918 100.01 19.7972 99.9784 19.9904 99.9029C21.5673 99.6632 38.2596 86.9767 41.1442 84.7937C44.0784 85.2353 47.0376 85.4529 50 85.445C77.6154 85.445 100 66.3188 100 42.7225C100 19.1261 77.6154 0 50 0ZM25.2548 36.0901C25.1923 42.1337 25.3029 48.49 25.2115 54.4399C25.1827 56.3416 24.1731 56.9095 22.8077 57.4513C22.6534 57.5104 22.4873 57.523 22.3269 57.4878C20.7644 57.1543 19.5192 56.55 19.4808 54.4451C19.3702 48.5004 19.5144 42.1337 19.4375 36.0901C18.1154 36.0328 16.2308 36.1474 15.0048 36.0901C13.3029 35.9702 12.1202 34.798 12.1923 33.0526C12.2644 31.3072 13.125 30.0516 15.0337 30.0204C19.5433 29.9474 25.1298 29.9474 29.6394 30.0204C31.5625 30.0516 32.4183 31.3124 32.476 33.0526C32.5337 34.7928 31.3702 35.9702 29.6731 36.0901C28.4615 36.1474 26.5817 36.0328 25.2548 36.0901ZM49.4856 57.1648C48.9089 57.4492 48.2827 57.5966 47.649 57.5972C46.4471 57.5972 45.5288 57.0762 45.2452 56.2165L43.8029 52.1631H35.024L33.5817 56.2165C33.3029 57.0658 32.3846 57.5972 31.1779 57.5972C30.5457 57.5972 29.921 57.4497 29.3462 57.1648C28.5481 56.7688 27.7837 55.6747 28.6587 52.7258L35.5769 33.0422C35.8671 32.1752 36.3867 31.4201 37.0708 30.8715C37.7549 30.3229 38.5731 30.0051 39.4231 29.9578C40.2724 30.0101 41.089 30.3305 41.7724 30.8794C42.4558 31.4284 42.9761 32.182 43.2692 33.0474L50.1635 52.7206C51.0433 55.6747 50.2788 56.7896 49.4856 57.1648ZM64.0625 57.1648H54.8077C54.091 57.1801 53.3978 56.8873 52.8797 56.3503C52.3617 55.8133 52.0609 55.0759 52.0433 54.2992V33.0839C52.074 32.2598 52.3977 31.4806 52.9466 30.9094C53.4954 30.3381 54.227 30.0191 54.988 30.0191C55.749 30.0191 56.4805 30.3381 57.0294 30.9094C57.5783 31.4806 57.902 32.2598 57.9327 33.0839V51.4493H64.0625C64.4232 51.4257 64.7845 51.4824 65.1242 51.6157C65.4639 51.7491 65.7748 51.9563 66.0379 52.2247C66.301 52.4931 66.5106 52.817 66.6539 53.1764C66.7971 53.5359 66.8711 53.9233 66.8711 54.3149C66.8711 54.7064 66.7971 55.0938 66.6539 55.4533C66.5106 55.8127 66.301 56.1366 66.0379 56.405C65.7748 56.6734 65.4639 56.8807 65.1242 57.014C64.7845 57.1473 64.4232 57.204 64.0625 57.1804V57.1648ZM86.6587 54.8098C86.5836 55.4265 86.3405 56.0048 85.9605 56.4709C85.5804 56.937 85.0807 57.2697 84.5253 57.4263C83.9698 57.583 83.3839 57.5565 82.8424 57.3502C82.3009 57.144 81.8285 56.7674 81.4856 56.2686L74.7212 46.5623L73.7211 47.646V54.4659C73.7211 55.295 73.4172 56.0901 72.8763 56.6764C72.3353 57.2626 71.6016 57.592 70.8365 57.592C70.0715 57.592 69.3378 57.2626 68.7968 56.6764C68.2558 56.0901 67.9519 55.295 67.9519 54.4659V33.1047C67.9519 32.2756 68.2558 31.4805 68.7968 30.8943C69.3378 30.308 70.0715 29.9787 70.8365 29.9787C71.6016 29.9787 72.3353 30.308 72.8763 30.8943C73.4172 31.4805 73.7211 32.2756 73.7211 33.1047V39.8048L81.7692 31.0832C81.9799 30.8574 82.23 30.6794 82.5049 30.5596C82.7798 30.4397 83.0739 30.3804 83.3702 30.3851C84.0905 30.4056 84.7785 30.7137 85.302 31.2502C85.8255 31.7868 86.1477 32.514 86.2067 33.2923C86.2326 33.6396 86.1899 33.9888 86.0812 34.3168C85.9726 34.6447 85.8007 34.9438 85.5769 35.1939L78.9904 42.3161L86.0913 52.5122C86.5511 53.1735 86.7499 54.0054 86.6442 54.8254L86.6587 54.8098Z" fill="black"/>
</svg>
