<svg width="20" height="20" viewBox="0 0 20 20" fill="none" xmlns="http://www.w3.org/2000/svg">
<g clip-path="url(#clip0_237_562)">
<path d="M13.4 12.8C14.6 11.4 15.3 9.7 15.3 7.7C15.3 3.5 11.9 0 7.6 0C3.3 0 0 3.4 0 7.7C0 12 3.4 15.4 7.7 15.4C9.7 15.4 11.4 14.7 12.8 13.5L19.2 19.9L19.8 19.3L13.4 12.8ZM7.7 14.5C4 14.5 0.9 11.5 0.9 7.7C0.9 3.9 3.9 0.899999 7.7 0.899999C11.5 0.899999 14.5 3.9 14.5 7.7C14.5 11.5 11.4 14.5 7.7 14.5Z" fill="white"/>
</g>
<defs>
<clipPath id="clip0_237_562">
<rect width="19.8" height="19.9" fill="white"/>
</clipPath>
</defs>
</svg>
