<svg width="14" height="20" viewBox="0 0 14 20" fill="none" xmlns="http://www.w3.org/2000/svg">
<g clip-path="url(#clip0_237_565)">
<mask id="mask0_237_565" style="mask-type:alpha" maskUnits="userSpaceOnUse" x="0" y="0" width="14" height="20">
<path d="M5.91799 19.0275C6.14272 19.4021 6.36746 19.5893 6.6671 19.5893C6.92929 19.5893 7.19148 19.4021 7.41621 19.0275L11.3116 12.3229C12.248 10.7498 13.3342 8.27771 13.3342 6.33C13.3342 2.6219 10.5625 0 6.6671 0C2.77172 0 0 2.6219 0 6.33C0 8.27771 1.08621 10.7498 2.0226 12.3229L5.91799 19.0275ZM6.6671 18.578L2.77172 11.8735C1.64805 9.92581 0.898929 7.7534 0.898929 6.33C0.898929 3.1463 3.25864 0.899002 6.6671 0.899002C10.0756 0.899002 12.4353 3.1463 12.4353 6.33C12.4353 7.7534 11.6861 9.92581 10.5625 11.8735L6.6671 18.578ZM6.6671 9.02681C5.13142 9.02681 3.9703 7.86571 3.9703 6.33C3.9703 4.7944 5.13142 3.63321 6.6671 3.63321C8.20278 3.63321 9.3639 4.7944 9.3639 6.33C9.3639 7.86571 8.20278 9.02681 6.6671 9.02681ZM6.6671 9.92581C8.65225 9.92581 10.2628 8.3152 10.2628 6.33C10.2628 4.34491 8.65225 2.7343 6.6671 2.7343C4.68195 2.7343 3.07136 4.34491 3.07136 6.33C3.07136 8.3152 4.68195 9.92581 6.6671 9.92581Z" fill="black"/>
</mask>
<g mask="url(#mask0_237_565)">
<rect x="-12" y="-6" width="34" height="33" fill="white"/>
</g>
</g>
<defs>
<clipPath id="clip0_237_565">
<rect width="13.3342" height="19.5893" fill="white"/>
</clipPath>
</defs>
</svg>
