<?xml version="1.0" encoding="utf-8"?>
<!-- Generator: Adobe Illustrator 23.0.4, SVG Export Plug-In . SVG Version: 6.00 Build 0)  -->
<svg version="1.1" id="Layer_1" xmlns="http://www.w3.org/2000/svg" xmlns:xlink="http://www.w3.org/1999/xlink" x="0px" y="0px"
	 viewBox="0 0 13.3341675 19.5892944" style="enable-background:new 0 0 13.3341675 19.5892944;" xml:space="preserve">
<path d="M5.9179764,19.027504c0.2247314,0.374588,0.4494705,0.5617981,0.7491074,0.5617981
	c0.2621918,0,0.5243835-0.1872101,0.749115-0.5617981l3.8953857-6.7046051
	c0.9363937-1.5731049,2.0225983-4.0451965,2.0225983-5.9929047c0-3.7080994-2.7717209-6.3300018-6.667099-6.3300018
	s-6.667099,2.6219025-6.667099,6.3300018c0,1.9477081,1.0862122,4.4197998,2.0226021,5.9929047L5.9179764,19.027504z
	 M6.6670837,18.5779953L2.7717056,11.873497C1.648037,9.9258041,0.8989143,7.7533951,0.8989143,6.3299942
	c0-3.1837006,2.3597107-5.4309998,5.7681694-5.4309998c3.4084625,0,5.7681732,2.2472992,5.7681732,5.4309998
	c0,1.4234009-0.7491226,3.5958099-1.8727951,5.5435028L6.6670837,18.5779953z M6.6670837,9.0268021
	c-1.535675,0-2.6968002-1.1611023-2.6968002-2.6968079c0-1.5355988,1.1611252-2.6967926,2.6968002-2.6967926
	c1.5356827,0,2.6968002,1.1611938,2.6968002,2.6967926C9.363884,7.8656998,8.2027664,9.0268021,6.6670837,9.0268021z
	 M6.6670837,9.9258041c1.9851532,0,3.5957413-1.610611,3.5957413-3.5958099c0-1.9850922-1.6105881-3.5957031-3.5957413-3.5957031
	c-1.9851456,0-3.5957375,1.610611-3.5957375,3.5957031C3.0713463,8.3151932,4.6819382,9.9258041,6.6670837,9.9258041z"/>
</svg>
