<svg width="20" height="20" viewBox="0 0 20 20" fill="none" xmlns="http://www.w3.org/2000/svg">
<path d="M15.3 12.5999H4.5C2 12.5999 0 14.5999 0 17.0999V19.7999H0.9V17.0999C0.9 15.0999 2.5 13.4999 4.5 13.4999H15.3C17.3 13.4999 18.9 15.0999 18.9 17.0999V19.7999H19.8V17.0999C19.8 14.5999 17.8 12.5999 15.3 12.5999Z" fill="white"/>
<path d="M9.9 11C12.9 11 15.3 8.59995 15.3 5.59995C15.3 2.59995 12.9 0.199951 9.9 0.199951C6.9 0.199951 4.5 2.59995 4.5 5.59995C4.5 8.59995 6.9 11 9.9 11ZM9.9 1.09995C12.4 1.09995 14.4 3.09995 14.4 5.59995C14.4 8.09995 12.4 10.1 9.9 10.1C7.4 10.1 5.4 8.09995 5.4 5.59995C5.4 3.09995 7.4 1.09995 9.9 1.09995Z" fill="white"/>
</svg>
