<?xml version="1.0" encoding="utf-8"?>
<!-- Generator: Adobe Illustrator 23.0.4, SVG Export Plug-In . SVG Version: 6.00 Build 0)  -->
<svg version="1.1" id="Layer_1" xmlns="http://www.w3.org/2000/svg" xmlns:xlink="http://www.w3.org/1999/xlink" x="0px" y="0px"
	 viewBox="0 0 16.1807861 19.7766113" style="enable-background:new 0 0 16.1807861 19.7766113;" xml:space="preserve">
<path d="M5.3936005,5.3936157V3.5958252c0-1.3859253,1.1985931-2.6968384,2.6967926-2.6968384
	s2.6967926,1.3109131,2.6967926,2.6968384v1.7977905H5.3936005z M0.8988953,18.8776855V6.2926025h3.5957947V8.539917
	c0,0.262207,0.1872101,0.4494629,0.4494019,0.4494629c0.262207,0,0.4495087-0.1872559,0.4495087-0.4494629V6.2926025h5.3935852
	V8.539917c0,0.262207,0.1873016,0.4494629,0.4495087,0.4494629c0.2621918,0,0.4494019-0.1872559,0.4494019-0.4494629V6.2926025
	h3.5957947v12.585083H0.8988953z M0,19.3270874c0,0.2997437,0.1497955,0.4495239,0.4494934,0.4495239h15.2817993
	c0.2996979,0,0.4494934-0.1497803,0.4494934-0.4495239V5.8431396c0-0.2996216-0.1497955-0.4495239-0.4494934-0.4495239h-4.0451965
	V3.5958252C11.6860962,1.6105957,10.1504974,0,8.0903931,0S4.4946899,1.6105957,4.4946899,3.5958252v1.7977905H0.4494934
	C0.1497955,5.3936157,0,5.5435181,0,5.8431396V19.3270874z"/>
</svg>
