<?xml version="1.0" encoding="utf-8"?>
<!-- Generator: Adobe Illustrator 23.0.4, SVG Export Plug-In . SVG Version: 6.00 Build 0)  -->
<svg version="1.1" id="Layer_1" xmlns="http://www.w3.org/2000/svg" xmlns:xlink="http://www.w3.org/1999/xlink" x="0px" y="0px"
	 viewBox="0 0 19.7766113 19.7765808" style="enable-background:new 0 0 19.7766113 19.7765808;" xml:space="preserve">
<path d="M9.8507996,0C4.3823242,0,0,4.3822937,0,9.9257812c0,4.1575012,2.6219177,7.7533264,6.255127,9.2140198
	c-0.0749207-0.8240051-0.1498108-2.0599976,0.0748901-2.8466187c0.1872864-0.8239746,1.1611023-4.9815979,1.1611023-4.9815979
	s-0.3370972-0.5617981-0.3370972-1.4607849c0-1.3109131,0.8240967-2.3597107,1.7978821-2.3597107
	c0.8988953,0,1.3110046,0.6368103,1.3110046,1.3858948c0,0.8240051-0.5618896,2.0975037-0.8989868,3.258606
	c-0.1498108,1.0487976,0.5618896,1.7979126,1.4607849,1.7979126c1.7979126,0,3.1837158-1.7979126,3.1837158-4.4947205
	c0-2.3596802-1.7229004-4.0825806-4.1576233-4.0825806c-2.8465881,0-4.4945984,2.1348877-4.4945984,4.3447876
	c0,0.8615112,0.3370972,1.7604065,0.749115,2.247406c0.0748901,0.1123047,0.0748901,0.1871948,0.0748901,0.262207
	c-0.0748901,0.3370972-0.2247009,0.9737854-0.2247009,1.1235962c-0.1123962,0.1872864-0.1872864,0.262207-0.4120789,0.1872864
	c-1.2360229-0.5993042-1.9476013-2.4346008-1.9476013-3.8204956c0-3.1836853,2.2472839-6.030304,6.4797974-6.030304
	c3.4458923,0,6.1051941,2.4346008,6.1051941,5.6932068c0,3.4085083-2.0975037,6.1802063-5.0939026,6.1802063
	c-1.0112915,0-1.985199-0.5617981-2.28479-1.1236877c0,0-0.486908,1.8727722-0.5993042,2.3596802
	c-0.2247009,0.7865906-0.8615112,1.9476929-1.2734985,2.5845032c0.973877,0.262207,1.9476929,0.4119873,2.9214783,0.4119873
	c5.5435181,0,9.9258118-4.3822937,9.9258118-9.8507996C19.7766113,4.3822937,15.3943176,0,9.8507996,0z"/>
</svg>
