<svg width="1659" height="1707" viewBox="0 0 1659 1707" fill="none" xmlns="http://www.w3.org/2000/svg">
<g clip-path="url(#clip0_7_61)">
<path d="M536.667 1.46663C399.467 12 274.133 68.2666 176.133 163.333C44.8 290.667 -18 468.933 4.79997 650C25.6 815.867 118 964.667 258 1057.87C283.733 1075.07 294.267 1081.2 320.667 1094.4C380.933 1124.67 441.467 1142.67 513.333 1151.6C540.933 1154.93 615.067 1154.93 642.667 1151.6C696.533 1144.93 742.933 1133.2 791.333 1114.13C824.8 1101.07 871.333 1076.4 900.533 1056.4L911.2 1049.2L1054.53 1192.27C1565.87 1702.53 1557.2 1693.87 1564.93 1698.27C1590.13 1712.27 1619.73 1708.27 1640 1688C1659.73 1668.27 1664 1640.13 1651.2 1614.27C1648.4 1608.53 1589.6 1549.2 1326.93 1286.4C1032 991.333 1006.4 965.333 1008 963.067C1009.07 961.733 1013.33 956.8 1017.33 952C1112.53 840.533 1162.4 695.067 1154.8 550.533C1150.53 469.2 1132.8 399.067 1098.8 328.667C1076.27 282.133 1053.47 246.667 1019.87 206C1005.73 188.933 967.2 150.4 950 136.133C858.4 60.2666 754.933 16.1333 638.533 3.33329C615.333 0.79996 558.8 -0.266707 536.667 1.46663ZM640.667 128C744.267 143.733 834.4 189.733 904.933 263.2C973.733 334.667 1015.47 422.4 1028.93 523.333C1032.13 548.133 1032.13 605.733 1028.93 631.333C1021.73 686.8 1007.87 732.4 983.333 781.333C943.733 860.4 879.467 928.133 802 972.267C673.467 1045.47 514.933 1050.93 381.733 986.667C251.733 924 159.467 804.8 132 664C127.067 638.4 125.2 620.933 124.4 590C123.6 555.6 124.933 533.6 130 503.2C151.467 373.733 228.933 259.067 341.733 190.133C402.133 153.067 466.4 132.267 543.333 124.8C546.267 124.533 565.2 124.4 585.333 124.667C614.267 125.067 625.867 125.733 640.667 128Z" fill="black"/>
</g>
<defs>
<clipPath id="clip0_7_61">
<rect width="1658.67" height="1706.67" fill="white"/>
</clipPath>
</defs>
</svg>
